<svg width="25" height="13" viewBox="0 0 25 13" fill="none" xmlns="http://www.w3.org/2000/svg">
<path d="M22.632 0C21.3509 0 20.3416 1.04814 20.3416 2.29037C20.3416 2.56211 20.3804 2.83385 20.4581 3.06677L15.7997 7.0264C15.4891 6.8323 15.1009 6.75466 14.6739 6.75466C14.2469 6.75466 13.8199 6.87112 13.4705 7.10404L10.8307 4.96894C10.9084 4.73602 10.9472 4.54193 10.9472 4.27019C10.9472 2.98913 9.89907 1.97981 8.65683 1.97981C7.37578 1.97981 6.36646 3.02795 6.36646 4.27019C6.36646 4.61957 6.4441 4.93013 6.56056 5.20186L3.22205 8.54037C2.95031 8.42391 2.60093 8.34627 2.29037 8.34627C1.00932 8.34627 0 9.39441 0 10.6366C0 11.9177 1.04814 12.927 2.29037 12.927C3.53261 12.927 4.58075 11.8789 4.58075 10.6366C4.58075 10.2873 4.50311 9.97671 4.38665 9.70497L7.72516 6.36646C7.99689 6.48292 8.34627 6.56056 8.65683 6.56056C9.08385 6.56056 9.51087 6.4441 9.86025 6.21118L12.5388 8.26863C12.4612 8.50155 12.4612 8.69565 12.4612 8.96739C12.4612 10.2484 13.5093 11.2578 14.7516 11.2578C15.9938 11.2578 17.0419 10.2096 17.0419 8.96739C17.0419 8.69565 17.0031 8.42391 16.9255 8.191L21.5839 4.23137C21.8944 4.42547 22.2826 4.50311 22.7096 4.50311C23.9907 4.50311 25 3.45497 25 2.21273C24.9612 1.04814 23.8742 0 22.632 0ZM2.25155 11.3354C1.90217 11.3354 1.59161 11.0248 1.59161 10.6755C1.59161 10.2873 1.90217 10.0155 2.25155 10.0155C2.60093 10.0155 2.91149 10.3261 2.91149 10.6755C2.91149 11.0248 2.63975 11.3354 2.25155 11.3354ZM7.95808 4.30901C7.95808 3.92081 8.26863 3.64907 8.61801 3.64907C8.96739 3.64907 9.27795 3.95963 9.27795 4.30901C9.27795 4.65839 8.96739 4.96894 8.61801 4.96894C8.26863 4.96894 7.95808 4.65839 7.95808 4.30901ZM14.7127 9.66615C14.3245 9.66615 14.0528 9.35559 14.0528 9.00621C14.0528 8.65683 14.3634 8.34627 14.7127 8.34627C15.0621 8.34627 15.3727 8.65683 15.3727 9.00621C15.3339 9.39441 15.1009 9.66615 14.7127 9.66615ZM22.632 2.95031C22.2826 2.95031 21.972 2.63975 21.972 2.29037C21.972 1.90217 22.2826 1.63044 22.632 1.63044C23.0202 1.63044 23.2919 1.94099 23.2919 2.29037C23.2919 2.67857 22.9814 2.95031 22.632 2.95031Z" fill="black"/>
</svg>
