<svg width="40" height="33" viewBox="0 0 40 33" fill="none" xmlns="http://www.w3.org/2000/svg">
<path d="M17.4694 13.6953L19.4289 16.2074C19.2798 16.5169 19.1476 16.8362 19.0337 17.1623L15.8716 17.5532C15.5705 17.5905 15.3442 17.8463 15.3442 18.1497V22.2131C15.3442 22.5164 15.5705 22.7723 15.8716 22.8096L19.0338 23.2002C19.1476 23.5261 19.2799 23.8452 19.429 24.1545L17.4695 26.6668C17.2829 26.906 17.3038 27.2469 17.5183 27.4613L20.3915 30.3355C20.6061 30.5501 20.947 30.571 21.1864 30.3843L23.6984 28.4243C24.0073 28.5732 24.3265 28.7052 24.6529 28.8193L25.0435 31.9818C25.0806 32.283 25.3366 32.5091 25.64 32.5091H29.7036C30.007 32.5091 30.263 32.283 30.3001 31.9818L30.6907 28.8193C31.0169 28.7053 31.3361 28.5733 31.6454 28.4242L34.1583 30.3843C34.3974 30.571 34.7385 30.5501 34.953 30.3354L37.8256 27.4614C38.0402 27.2468 38.0611 26.9061 37.8744 26.6669L35.9151 24.155C36.0644 23.8456 36.1967 23.5264 36.3106 23.2003L39.4727 22.8097C39.7739 22.7724 40 22.5165 40 22.2132V18.1499C40 17.8464 39.7739 17.5906 39.4727 17.5534L36.3099 17.1624C36.1958 16.8359 36.0637 16.5167 35.9149 16.2075L37.8743 13.6954C38.061 13.456 38.0401 13.115 37.8255 12.9006L34.9522 10.0283C34.7378 9.8138 34.3969 9.79293 34.1578 9.97939L31.6455 11.9382C31.3364 11.7892 31.0172 11.657 30.6909 11.543L30.3002 8.38136C30.2629 8.08022 30.0071 7.854 29.7037 7.854H25.6401C25.3368 7.854 25.0807 8.08022 25.0436 8.38147L24.653 11.5431C24.3266 11.6572 24.0074 11.7892 23.6985 11.9382L21.1863 9.97884C20.9472 9.79217 20.6063 9.81314 20.3916 10.0277L17.5186 12.9005C17.3038 13.115 17.2828 13.4559 17.4694 13.6953ZM20.8658 11.2534L23.2606 13.1213C23.4484 13.2678 23.7052 13.2896 23.9149 13.1767C24.3755 12.9289 24.8673 12.7253 25.3765 12.5715C25.6041 12.5027 25.77 12.306 25.7991 12.0698L26.1714 9.05607H29.1722L29.5447 12.0698C29.5738 12.3061 29.7397 12.5028 29.9673 12.5715C30.4759 12.7251 30.9674 12.9287 31.4289 13.1767C31.6386 13.2896 31.8953 13.2678 32.0832 13.1214L34.4779 11.2541L36.5998 13.3749L34.7318 15.7694C34.5854 15.9573 34.5635 16.2138 34.6763 16.4236C34.924 16.8848 35.1277 17.3767 35.2815 17.886C35.3505 18.1136 35.5472 18.2794 35.7833 18.3086L38.7981 18.6811V21.6817L35.784 22.0539C35.5478 22.0832 35.3511 22.2489 35.2822 22.4769C35.1291 22.9848 34.925 23.4763 34.6765 23.9377C34.5635 24.1476 34.5852 24.4044 34.7318 24.5924L36.6 26.9873L34.4786 29.1097L32.0832 27.2413C31.8954 27.0948 31.6389 27.073 31.4289 27.1859C30.9674 27.4339 30.4757 27.6375 29.9675 27.7909C29.7397 27.8596 29.5738 28.0564 29.5447 28.2927L29.1722 31.3072H26.1714L25.7991 28.2927C25.7698 28.0565 25.6041 27.8597 25.3763 27.7909C24.8673 27.6372 24.3755 27.4336 23.9149 27.1859C23.705 27.073 23.4484 27.0948 23.2604 27.2413L20.8659 29.1097L18.7441 26.9873L20.612 24.5924C20.7584 24.4047 20.7801 24.1481 20.6675 23.9382C20.4191 23.4762 20.2154 22.9845 20.0622 22.4768C19.9934 22.2489 19.7966 22.0831 19.5605 22.0539L16.5464 21.6817V18.681L19.5606 18.3086C19.7968 18.2793 19.9935 18.1136 20.0623 17.8857C20.2158 17.3775 20.4194 16.8856 20.6676 16.4236C20.7803 16.2138 20.7585 15.9572 20.6122 15.7694L18.7443 13.3749L20.8658 11.2534Z" fill="#8280FF"/>
<path d="M27.6719 25.0571C30.3601 25.0571 32.5471 22.8701 32.5471 20.1819C32.5471 17.4933 30.3601 15.3059 27.6719 15.3059C24.9836 15.3059 22.7966 17.4932 22.7966 20.1819C22.7966 22.8701 24.9835 25.0571 27.6719 25.0571ZM27.6719 16.5082C29.6971 16.5082 31.3449 18.1562 31.3449 20.182C31.3449 22.2073 29.6971 23.8551 27.6719 23.8551C25.6464 23.8551 23.9988 22.2073 23.9988 20.182C23.9987 18.1562 25.6464 16.5082 27.6719 16.5082Z" fill="#8280FF"/>
<path d="M1.62599 4.62368L3.03854 6.43481C2.95389 6.61668 2.87677 6.80313 2.80741 6.99352L0.52725 7.27566C0.226105 7.31301 0 7.56883 0 7.87216V10.9194C0 11.2229 0.226214 11.4788 0.527468 11.5159L2.8073 11.7975C2.87655 11.9876 2.95378 12.1742 3.03854 12.3562L1.62599 14.1672C1.43942 14.4064 1.46029 14.7472 1.67481 14.9617L3.82936 17.1172C4.04389 17.3319 4.38468 17.3528 4.62411 17.1663L6.43568 15.7536C6.61733 15.838 6.80379 15.9152 6.99406 15.9843L7.2762 18.2643C7.31345 18.5655 7.56926 18.7916 7.8727 18.7916H10.9197C11.2231 18.7916 11.479 18.5655 11.5162 18.2643L11.7982 15.9844C11.9884 15.9154 12.175 15.8381 12.3572 15.7535L14.1681 17.1662C14.4073 17.3528 14.7485 17.3319 14.9629 17.1172L17.1174 14.9617C17.3319 14.7471 17.3528 14.4064 17.1663 14.1672L15.7539 12.3565C15.8391 12.1736 15.9165 11.9869 15.9856 11.7974L18.265 11.5159C18.5661 11.4788 18.7924 11.2229 18.7924 10.9194V7.87216C18.7924 7.56883 18.5663 7.31301 18.2651 7.27566L15.9849 6.99352C15.9156 6.80313 15.8385 6.61657 15.7538 6.43481L17.1663 4.62357C17.3529 4.38436 17.3319 4.04345 17.1173 3.82903L14.9628 1.67427C14.7481 1.45963 14.4073 1.43877 14.168 1.62533L12.3572 3.03789C12.1745 2.9528 11.9877 2.87546 11.7981 2.80643L11.516 0.52725C11.4788 0.226105 11.223 0 10.9195 0H7.87281C7.56937 0 7.31356 0.225995 7.27631 0.52725L6.99417 2.80654C6.80433 2.87568 6.61788 2.95291 6.43568 3.03778L4.62411 1.62522C4.3849 1.43877 4.044 1.45974 3.82958 1.67427L1.67492 3.82903C1.4604 4.04345 1.43942 4.38425 1.62599 4.62368ZM4.30396 2.90004L5.99604 4.2192C6.18402 4.3659 6.44104 4.38752 6.65087 4.27425C6.98718 4.09304 7.346 3.94438 7.7176 3.83242C7.94556 3.76372 8.11148 3.56699 8.14075 3.33062L8.40421 1.20207H10.3886L10.652 3.33062C10.6813 3.5671 10.8475 3.76393 11.0755 3.83253C11.4454 3.94372 11.8046 4.0925 12.1434 4.27458C12.3532 4.38741 12.6099 4.36579 12.7977 4.2192L14.4888 2.90015L15.892 4.30331L14.5728 5.99483C14.4262 6.18282 14.4046 6.43962 14.5176 6.64945C14.6978 6.98412 14.8467 7.34349 14.9599 7.7176C15.0289 7.94523 15.2255 8.11082 15.4614 8.13999L17.5905 8.40345V10.388L15.4621 10.6508C15.2257 10.6801 15.0288 10.846 14.9602 11.0741C14.8489 11.4436 14.7 11.8029 14.5176 12.142C14.4047 12.3519 14.4264 12.6086 14.5729 12.7964L15.8921 14.4875L14.4888 15.8914L12.7979 14.5724C12.6099 14.4258 12.3532 14.4041 12.1434 14.517C11.8073 14.6978 11.448 14.8463 11.0756 14.9583C10.8475 15.0269 10.6814 15.2237 10.6522 15.4601L10.3887 17.5896H8.40411L8.14064 15.4601C8.11137 15.2239 7.94545 15.0271 7.71749 14.9584C7.34338 14.8457 6.98445 14.6972 6.65087 14.5173C6.44093 14.4041 6.18391 14.4256 5.99582 14.5723L4.30385 15.8916L2.90048 14.4875L4.21964 12.7964C4.36622 12.6086 4.38796 12.3519 4.27502 12.142C4.09413 11.8057 3.94525 11.4463 3.83264 11.0735C3.76382 10.8457 3.5671 10.6799 3.33095 10.6508L1.20196 10.388V8.40345L3.33106 8.13999C3.56699 8.11071 3.76361 7.94523 3.83253 7.71771C3.94591 7.34349 4.09468 6.98401 4.27491 6.64945C4.38796 6.43962 4.36633 6.18282 4.21975 5.99483L2.90069 4.3032L4.30396 2.90004Z" fill="#ABA9FF"/>
<path d="M9.39636 13.2027C11.4956 13.2027 13.2034 11.4949 13.2034 9.39586C13.2034 7.29669 11.4956 5.58911 9.39636 5.58911C7.29741 5.58911 5.58972 7.2968 5.58972 9.39586C5.58983 11.4949 7.29752 13.2027 9.39636 13.2027ZM9.39636 6.79129C10.8327 6.79129 12.0013 7.95972 12.0013 9.39597C12.0013 10.8322 10.8327 12.0007 9.39636 12.0007C7.96033 12.0007 6.7919 10.8322 6.7919 9.39597C6.79201 7.95972 7.96033 6.79129 9.39636 6.79129Z" fill="#ABA9FF"/>
</svg>
